<?xml version="1.0" encoding="utf-8"?>
<!-- Generator: Adobe Illustrator 24.2.0, SVG Export Plug-In . SVG Version: 6.00 Build 0)  -->
<svg version="1.1" id="Layer_1" xmlns="http://www.w3.org/2000/svg" xmlns:xlink="http://www.w3.org/1999/xlink" x="0px" y="0px"
	 viewBox="0 0 324 209.6" style="enable-background:new 0 0 324 209.6;" xml:space="preserve">
<style type="text/css">
	.st0{clip-path:url(#SVGID_2_);}
	.st1{fill:#4A89DC;}
	.st2{fill:#5D9CEC;}
	.st3{clip-path:url(#SVGID_4_);}
	.st4{fill:#EDAB37;}
	.st5{fill:#F6BB42;}
	.st6{clip-path:url(#SVGID_6_);}
	.st7{fill:#967ADC;}
	.st8{clip-path:url(#SVGID_8_);}
	.st9{fill:#AC92EC;}
	.st10{clip-path:url(#SVGID_10_);}
	.st11{fill:#B7A5EF;}
	.st12{fill:#87BCF4;}
	.st13{clip-path:url(#SVGID_12_);}
	.st14{fill:#FFCE54;}
</style>
<g id="surface1">
	<g>
		<defs>
			<rect id="SVGID_1_" x="162" y="62.5" width="162" height="146.8"/>
		</defs>
		<clipPath id="SVGID_2_">
			<use xlink:href="#SVGID_1_"  style="overflow:visible;"/>
		</clipPath>
		<g class="st0">
			<path class="st1" d="M324,204.4c0,2.9-2.4,5.2-5.2,5.2H167.2c-2.9,0-5.2-2.4-5.2-5.2V68.1c0-2.9,2.4-5.2,5.2-5.2h151.5
				c2.9,0,5.2,2.4,5.2,5.2V204.4z"/>
		</g>
	</g>
	<path class="st2" d="M324,141.4c0,2.9-2.4,5.2-5.2,5.2H167.2c-2.9,0-5.2-2.4-5.2-5.2V68.1c0-2.9,2.4-5.2,5.2-5.2h151.5
		c2.9,0,5.2,2.4,5.2,5.2V141.4z"/>
	<g>
		<defs>
			<rect id="SVGID_3_" y="62.5" width="162" height="146.8"/>
		</defs>
		<clipPath id="SVGID_4_">
			<use xlink:href="#SVGID_3_"  style="overflow:visible;"/>
		</clipPath>
		<g class="st3">
			<path class="st4" d="M162,204.4c0,2.9-2.4,5.2-5.2,5.2H5.2c-2.9,0-5.2-2.4-5.2-5.2V68.1c0-2.9,2.4-5.2,5.2-5.2h151.5
				c2.9,0,5.2,2.4,5.2,5.2V204.4z"/>
		</g>
	</g>
	<path class="st5" d="M162,141.4c0,2.9-2.4,5.2-5.2,5.2H5.2c-2.9,0-5.2-2.4-5.2-5.2V68.1c0-2.9,2.4-5.2,5.2-5.2h151.5
		c2.9,0,5.2,2.4,5.2,5.2V141.4z"/>
	<g>
		<defs>
			<rect id="SVGID_5_" x="81" y="0" width="162" height="147.5"/>
		</defs>
		<clipPath id="SVGID_6_">
			<use xlink:href="#SVGID_5_"  style="overflow:visible;"/>
		</clipPath>
		<g class="st6">
			<path class="st7" d="M243,141.5c0,2.9-2.3,5.2-5.2,5.2H86.3c-2.9,0-5.2-2.4-5.2-5.2V5.2c0-2.9,2.4-5.2,5.2-5.2h151.5
				c2.9,0,5.2,2.4,5.2,5.2V141.5z"/>
		</g>
	</g>
	<g>
		<defs>
			<rect id="SVGID_7_" x="81" y="0" width="162" height="84.5"/>
		</defs>
		<clipPath id="SVGID_8_">
			<use xlink:href="#SVGID_7_"  style="overflow:visible;"/>
		</clipPath>
		<g class="st8">
			<path class="st9" d="M243,78.6c0,2.9-2.3,5.2-5.2,5.2H86.3c-2.9,0-5.2-2.4-5.2-5.2V5.2c0-2.9,2.4-5.2,5.2-5.2h151.5
				c2.9,0,5.2,2.4,5.2,5.2V78.6z"/>
		</g>
	</g>
	<path class="st7" d="M222.2,20.9v21c0,11.6-9.3,21-20.9,21c-11.5,0-20.9-9.4-20.9-21v-21c0,11.6,9.4,21,20.9,21
		C212.8,41.9,222.2,32.5,222.2,20.9z"/>
	<g>
		<defs>
			<rect id="SVGID_9_" x="101" y="0" width="43" height="42.5"/>
		</defs>
		<clipPath id="SVGID_10_">
			<use xlink:href="#SVGID_9_"  style="overflow:visible;"/>
		</clipPath>
		<g class="st10">
			<path class="st11" d="M143.7,20.9c0,11.6-9.4,21-20.9,21c-11.5,0-20.9-9.4-20.9-21c0-11.2,8.8-20.4,19.9-20.9h2.1
				C134.9,0.6,143.7,9.7,143.7,20.9z"/>
		</g>
	</g>
	<path class="st12" d="M303,83.9c0,11.5-9.4,21-20.9,21c-11.5,0-20.9-9.4-20.9-21c0-11.6,9.4-21,20.9-21
		C293.7,62.9,303,72.3,303,83.9z"/>
	<path class="st7" d="M122.8,41.9c11.5,0,20.9-9.4,20.9-21v21c0,11.6-9.4,21-20.9,21c-11.5,0-20.9-9.4-20.9-21v-21
		C101.9,32.5,111.3,41.9,122.8,41.9z"/>
	<path class="st4" d="M41.8,104.8c11.5,0,20.9-9.4,20.9-21v21c0,11.6-9.4,21-20.9,21s-20.9-9.4-20.9-21v-21
		C20.9,95.4,30.3,104.8,41.8,104.8z"/>
	<g>
		<defs>
			<rect id="SVGID_11_" x="180" y="0" width="43" height="42.5"/>
		</defs>
		<clipPath id="SVGID_12_">
			<use xlink:href="#SVGID_11_"  style="overflow:visible;"/>
		</clipPath>
		<g class="st13">
			<path class="st11" d="M202.4,0c11,0.6,19.8,9.7,19.8,20.9c0,11.6-9.3,21-20.9,21c-11.5,0-20.9-9.4-20.9-21
				c0-11.2,8.8-20.4,19.9-20.9H202.4z"/>
		</g>
	</g>
	<path class="st14" d="M62.7,83.9c0,11.5-9.4,21-20.9,21s-20.9-9.4-20.9-21c0-11.6,9.3-21,20.9-21S62.7,72.3,62.7,83.9z"/>
	<path class="st1" d="M303,83.9v21c0,11.6-9.4,21-20.9,21c-11.5,0-20.9-9.4-20.9-21v-21c0,11.5,9.4,21,20.9,21
		C293.7,104.8,303,95.4,303,83.9z"/>
</g>
</svg>
